# xmcd
# Copyright (C) 1995-1998 Ti Kan
#
# Track frame offsets:
#       150
#       80748
#       150296
#       225359
#
# Disc length: 3983 seconds
#
# Revision: 0
# Processed by: cddbd v1.5.2PL0 Copyright (c) Steve Scherf et al.
# Submitted via: CD-Import v1.0
#
DISCID=1c0f8d04
DTITLE=Astrid Lindgren - Ronja Räubertochter
DYEAR=1900
DGENRE=
TTITLE0=Ronja 1
TTITLE1=Ronja 2
TTITLE2=Ronja 3
TTITLE3=Ronja 4
EXTD=
EXTT0=
EXTT1=
EXTT2=
EXTT3=
PLAYORDER=
